{"title":"SUPERMAN RETURNS (2006)_(HINDI)_(DIVX) - PIXEN","uid":5487832,"size":842927082,"categoryP":"video","categoryS":"movies","magnet":"?xt=urn:btih:e837e6920cbc17e9b411ddf28f5b50eec1bae093&amp;dn=SUPERMAN+RETURNS+%282006%29_%28HINDI%29_%28DIVX%29+-+PIXEN&amp;tr=udp%3A%2F%2Ftracker.openbittorrent.com%3A80&amp;tr=udp%3A%2F%2Fopen.demonii.com%3A1337&amp;tr=udp%3A%2F%2Ftracker.coppersurfer.tk%3A6969&amp;tr=udp%3A%2F%2Fexodus.desync.com%3A6969","seeders":0,"leechers":1,"uploader":"pixmaker","files":2,"time":1270826925,"description":"========================================================\n\t\tUPLOADED BY\t: PIXEN\n========================================================\n\n========================================================\n\t\t\tGeneral INFO\n========================================================\n\nComplete name                    : SUPERMAN (HINDI)\nGENRE\t\t\t\t : Action | Adventure | Sci-Fi \nFormat                           : DivX\nFormat/Info                      : Hack of AVI\nFile size                        : 804 MiB\nOverall bit rate                 : 798 Kbps\n\n========================================================\n\t\t\tVideo INFO\n========================================================\n\nFormat                           : MPEG-4 Visual\nFormat settings, BVOP            : Yes\nFormat settings, QPel            : No\nFormat settings, GMC             : No warppoints\nFormat settings, Matrix          : Default (H.263)\nMuxing mode                      : Packed bitstream\nCodec ID                         : DX50\nCodec ID/Hint                    : DivX 5\nDuration                         : 2h 20mn\nBit rate                         : 676 Kbps\nWidth                            : 384 pixels\nHeight                           : 288 pixels\nDisplay aspect ratio             : 4:3\nFrame rate                       : 25.000 fps\nResolution                       : 8 bits\nColorimetry                      : 4:2:0\nScan type                        : Progressive\nBits/(Pixel*Frame)               : 0.245\nStream size                      : 681 MiB (85%)\nWriting library                  : DivX 2151\n\n========================================================\n\t\t\tAudio INFO\n========================================================\n\nFormat                           : MPEG Audio\nFormat version                   : Version 1\nFormat profile                   : Layer 3\nCodec ID                         : 55\nCodec ID/Hint                    : MP3\nBit rate mode                    : Constant\nBit rate                         : 112 Kbps\nChannel(s)                       : 2 channels\nSampling rate                    : 48.0 KHz\nStream size                      : 113 MiB (14%)\nAlignment                        : Split accross interleaves\nInterleave, duration             : 40 ms (1.00 video frame)\nInterleave, preload duration     : 500 ms\n\n\n\n\n\nIMDB LINK\t\t\t : http://www.imdb.com/title/tt0348150/\n\nDOWNLOAD MORE HOLLYWOOD MOVIES\nJUST FOLLOW THE LINK\t\t : http://thepiratebay.se/user/pixmaker/\n\n\n\nDONT FORGET TO SEED &amp; POST COMMENTS\n\nENJOY!\n\n\n\n\n\n\n","torrent":{"xt":"urn:btih:e837e6920cbc17e9b411ddf28f5b50eec1bae093","amp;dn":"SUPERMAN+RETURNS+%282006%29_%28HINDI%29_%28DIVX%29+-+PIXEN","amp;tr":["udp%3A%2F%2Ftracker.openbittorrent.com%3A80","udp%3A%2F%2Fopen.demonii.com%3A1337","udp%3A%2F%2Ftracker.coppersurfer.tk%3A6969","udp%3A%2F%2Fexodus.desync.com%3A6969"],"infoHash":"e837e6920cbc17e9b411ddf28f5b50eec1bae093","infoHashBuffer":{"type":"Buffer","data":[232,55,230,146,12,188,23,233,180,17,221,242,143,91,80,238,193,186,224,147]},"announce":[],"urlList":[]}}